<?xml version="1.0" standalone="no"?>
<!DOCTYPE svg PUBLIC "-//W3C//DTD SVG 20010904//EN"
 "http://www.w3.org/TR/2001/REC-SVG-20010904/DTD/svg10.dtd">
<svg version="1.0" xmlns="http://www.w3.org/2000/svg"
 width="462.000000pt" height="462.000000pt" viewBox="0 0 462.000000 462.000000"
 preserveAspectRatio="xMidYMid meet">
<metadata>
Created by potrace 1.11, written by Peter Selinger 2001-2013
</metadata>
<g transform="translate(0.000000,462.000000) scale(0.100000,-0.100000)"
fill="#000000" stroke="none">
<path d="M2412 4285 c-28 -15 -66 -43 -82 -63 -57 -69 -110 -202 -110 -278 0
-17 -3 -33 -6 -37 -3 -3 -50 10 -103 29 -110 39 -157 43 -194 14 -34 -27 -51
-79 -37 -114 5 -15 10 -29 10 -31 0 -1 -35 -11 -77 -20 -43 -10 -107 -28 -143
-41 -35 -13 -66 -22 -67 -20 -2 1 2 29 8 62 20 108 -6 231 -64 292 -86 92
-300 115 -489 51 -289 -97 -420 -388 -257 -572 44 -51 92 -72 181 -82 47 -5
62 -12 83 -36 39 -47 34 -94 -19 -176 -141 -220 -201 -428 -194 -677 l4 -139
-49 -46 c-114 -106 -217 -274 -254 -411 -21 -79 -23 -223 -4 -300 18 -71 60
-165 105 -232 73 -111 238 -255 368 -323 59 -31 67 -44 49 -88 -4 -12 -60 -40
-151 -78 -295 -122 -643 -306 -845 -446 l-70 -48 -3 -238 -2 -237 2307 0 2308
1 -95 91 c-377 362 -864 674 -1303 833 -64 23 -76 31 -72 46 4 10 1 27 -4 38
-10 18 -4 22 62 46 204 77 469 237 601 363 124 120 227 284 261 417 20 78 19
231 -1 308 -33 127 -119 264 -231 367 -63 58 -236 180 -255 180 -4 0 -8 14 -8
30 0 42 -22 82 -68 121 -31 27 -42 46 -52 89 -22 96 -77 235 -119 305 -23 37
-40 69 -39 70 2 1 31 15 65 30 69 30 135 93 159 152 8 19 15 62 15 94 1 77
-27 135 -93 194 -116 105 -258 92 -393 -36 -30 -28 -55 -45 -61 -40 -5 5 -67
21 -139 36 -71 15 -131 28 -133 30 -2 1 13 31 32 66 139 256 52 464 -199 476
-71 4 -86 2 -133 -22z m271 -1392 c57 -5 67 -8 61 -22 -32 -71 -5 -140 89
-232 50 -49 210 -164 311 -224 16 -9 16 -16 -7 -95 -26 -88 -67 -311 -67 -361
0 -15 -3 -30 -7 -32 -11 -7 -209 18 -348 42 -119 22 -463 99 -478 108 -4 2 6
20 23 39 36 41 65 97 73 142 4 17 5 32 4 32 -1 0 -36 -33 -77 -73 -41 -40
-126 -109 -189 -152 -69 -48 -108 -81 -98 -83 30 -6 141 28 189 58 46 28 49
28 82 15 30 -13 43 -31 87 -116 167 -326 385 -559 547 -585 91 -14 229 56 357
181 82 80 199 229 249 317 21 35 36 50 64 59 40 13 132 57 132 63 0 2 -24 -2
-52 -10 -102 -28 -244 -44 -387 -44 -111 0 -142 3 -138 13 68 154 81 214 75
363 l-4 112 55 17 c136 41 261 120 317 199 l21 29 46 -27 c92 -53 209 -149
268 -220 101 -119 168 -284 169 -414 0 -75 -30 -194 -70 -277 -164 -338 -632
-626 -1200 -735 -868 -168 -1765 59 -2069 525 -67 103 -92 178 -98 300 -10
203 64 365 252 551 166 164 418 307 712 404 210 69 397 105 683 133 66 7 355
7 423 0z"/>
<path d="M1687 2566 c-83 -31 -160 -121 -172 -200 -18 -115 72 -219 185 -215
16 1 8 5 -24 14 -140 39 -164 176 -52 291 78 80 159 94 237 41 53 -36 79 -82
79 -141 0 -37 3 -47 10 -36 18 27 10 86 -17 141 -47 92 -155 139 -246 105z"/>
</g>
</svg>
